<svg xmlns="http://www.w3.org/2000/svg" width="284" height="90" viewBox="0 0 284 90" fill="none">
<path d="M117.677 7.45631C118.756 7.45631 119.631 8.33114 119.631 9.41029V17.0476C119.631 18.1268 118.756 19.0016 117.677 19.0016H93.6837C92.6046 19.0016 91.7297 19.8764 91.7297 20.9556V37.3721C91.7297 38.4512 92.6046 39.3261 93.6837 39.3261H116.715C117.794 39.3261 118.669 40.2009 118.669 41.28V48.9173C118.669 49.9965 117.794 50.8713 116.715 50.8713H93.6837C92.6046 50.8713 91.7297 51.7461 91.7297 52.8253V85.7179C91.7297 86.797 90.8549 87.6718 89.7758 87.6718H81.4169C80.3377 87.6718 79.4629 86.797 79.4629 85.7179V9.41029C79.4629 8.33114 80.3377 7.45631 81.4169 7.45631H117.677Z" fill="#FF3956"/>
<path d="M126.63 1.95398C126.63 0.874828 127.504 0 128.584 0H136.461C137.54 0 138.415 0.874825 138.415 1.95398V85.7179C138.415 86.797 137.54 87.6718 136.461 87.6718H128.584C127.504 87.6718 126.63 86.797 126.63 85.7179V1.95398Z" fill="#FF3956"/>
<path d="M153.53 43.2947C158.741 38.2437 165.195 35.7182 172.892 35.7182C180.589 35.7182 187.003 38.2437 192.134 43.2947C197.346 48.2656 199.952 54.6396 199.952 62.4166C199.952 70.1134 197.346 76.5275 192.134 81.6587C187.003 86.7097 180.589 89.2353 172.892 89.2353C165.195 89.2353 158.741 86.7097 153.53 81.6587C148.399 76.5275 145.833 70.1134 145.833 62.4166C145.833 54.6396 148.399 48.2656 153.53 43.2947ZM161.948 74.3226C164.674 77.2089 168.322 78.6521 172.892 78.6521C177.462 78.6521 181.11 77.2089 183.836 74.3226C186.562 71.3561 187.925 67.4275 187.925 62.5368C187.925 57.1651 186.442 53.1162 183.475 50.3903C180.589 47.6643 177.061 46.3013 172.892 46.3013C168.723 46.3013 165.155 47.6643 162.189 50.3903C159.303 53.1162 157.859 57.1651 157.859 62.5368C157.859 67.4275 159.222 71.3561 161.948 74.3226Z" fill="#FF3956"/>
<path d="M228.607 45.9108C228.607 46.9899 227.732 47.8647 226.653 47.8647H221.541C220.462 47.8647 219.587 48.7396 219.587 49.8187V85.7179C219.587 86.797 218.712 87.6718 217.633 87.6718H209.755C208.676 87.6718 207.802 86.797 207.802 85.7179V49.8187C207.802 48.7396 206.927 47.8647 205.848 47.8647H204.825C203.746 47.8647 202.871 46.9899 202.871 45.9108V38.995C202.871 37.9159 203.746 37.041 204.825 37.041H205.848C206.927 37.041 207.802 36.1662 207.802 35.0871V20.4745C207.802 19.3954 208.676 18.5205 209.755 18.5205H217.633C218.712 18.5205 219.587 19.3953 219.587 20.4745V35.0871C219.587 36.1662 220.462 37.041 221.541 37.041H226.653C227.732 37.041 228.607 37.9159 228.607 38.995V45.9108Z" fill="#FF3956"/>
<path d="M236.807 43.2947C242.019 38.2437 248.473 35.7182 256.17 35.7182C263.867 35.7182 270.281 38.2437 275.412 43.2947C280.623 48.2656 283.229 54.6396 283.229 62.4166C283.229 70.1134 280.623 76.5275 275.412 81.6587C270.281 86.7097 263.867 89.2353 256.17 89.2353C248.473 89.2353 242.019 86.7097 236.807 81.6587C231.676 76.5275 229.111 70.1134 229.111 62.4166C229.111 54.6396 231.676 48.2656 236.807 43.2947ZM245.226 74.3226C247.952 77.2089 251.6 78.6521 256.17 78.6521C260.74 78.6521 264.388 77.2089 267.114 74.3226C269.84 71.3561 271.203 67.4275 271.203 62.5368C271.203 57.1651 269.719 53.1162 266.753 50.3903C263.867 47.6643 260.339 46.3013 256.17 46.3013C252.001 46.3013 248.433 47.6643 245.466 50.3903C242.58 53.1162 241.137 57.1651 241.137 62.5368C241.137 67.4275 242.5 71.3561 245.226 74.3226Z" fill="#FF3956"/>
<rect y="49.667" width="64.9764" height="13.0265" rx="3.25663" transform="rotate(-48.9683 0 49.667)" fill="#FF3956"/>
<rect x="12.0645" y="60.0386" width="39.1557" height="13.0265" rx="3.25663" transform="rotate(-48.9683 12.0645 60.0386)" fill="#FF3956"/>
<rect x="35.8613" y="80.5962" width="13.0036" height="13.0265" rx="3.25663" transform="rotate(-48.9683 35.8613 80.5962)" fill="#FF3956"/>
<circle cx="33.1877" cy="69.7426" r="6.51326" transform="rotate(-49.1715 33.1877 69.7426)" fill="#FF3956"/>
<circle cx="48.8371" cy="28.0131" r="6.51326" transform="rotate(-49.1715 48.8371 28.0131)" fill="#FF3956"/>
</svg>